<svg xmlns="http://www.w3.org/2000/svg" version="1.1" xmlns:xlink="http://www.w3.org/1999/xlink" xmlns:svgjs="http://svgjs.dev/svgjs" width="1000" height="356" viewBox="0 0 1000 356"><g transform="matrix(1,0,0,1,-0.6060606060606233,0.15399233234046505)"><svg viewBox="0 0 396 141" data-background-color="#ffffff" preserveAspectRatio="xMidYMid meet" height="356" width="1000" xmlns="http://www.w3.org/2000/svg" xmlns:xlink="http://www.w3.org/1999/xlink"><g id="tight-bounds" transform="matrix(1,0,0,1,0.2400000000000091,-0.060991345112370254)"><svg viewBox="0 0 395.52 141.12198269022474" height="141.12198269022474" width="395.52"><g><svg viewBox="0 0 679.2965478020037 242.37377543599263" height="141.12198269022474" width="395.52"><g transform="matrix(1,0,0,1,283.77654780200373,33.4973886456401)"><svg viewBox="0 0 395.52 175.37899814471243" height="175.37899814471243" width="395.52"><g><svg viewBox="0 0 395.52 175.37899814471243" height="175.37899814471243" width="395.52"><g><svg viewBox="0 0 395.52 175.37899814471243" height="175.37899814471243" width="395.52"><g transform="matrix(1,0,0,1,0,0)"><svg width="395.52" viewBox="2.799999952316284 -42.45000076293945 115.9000015258789 47.79999923706055" height="175.37899814471243" data-palette-color="#113f67"><g class="undefined-text-0" data-fill-palette-color="primary" id="text-0"><path d="M15 0.25Q11.55 0.25 8.78-1.45 6-3.15 4.4-6.38 2.8-9.6 2.8-14L2.8-14Q2.8-21.6 6.05-28.08 9.3-34.55 15.65-38.48 22-42.4 30.9-42.4L30.9-42.4Q33.2-42.4 35.83-42.05 38.45-41.7 40.6-41L40.6-41Q42-40.6 42-39L42-39Q42-37.7 41.03-36.55 40.05-35.4 38.75-35.4L38.75-35.4Q38.35-35.4 38.15-35.45L38.15-35.45Q35.55-36.05 33.7-36.33 31.85-36.6 29.8-36.6L29.8-36.6Q23.45-36.6 19-33.52 14.55-30.45 12.35-25.4 10.15-20.35 10.15-14.5L10.15-14.5Q10.15-10.25 11.83-7.93 13.5-5.6 16.2-5.6L16.2-5.6Q19.25-5.6 21.55-8.1 23.85-10.6 25.75-16.2 27.65-21.8 29.5-31.4L29.5-31.4Q29.8-32.8 30.7-33.3 31.6-33.8 33.1-33.8L33.1-33.8Q36.65-33.8 36.65-31.5L36.65-31.5Q36.65-31.1 36.5-30.5L36.5-30.5Q35.2-25.65 34.13-19.78 33.05-13.9 33.05-10.85L33.05-10.85Q33.05-8.15 33.85-6.93 34.65-5.7 36.3-5.7L36.3-5.7Q37.9-5.7 39.35-6.78 40.8-7.85 43-10.45L43-10.45Q43.6-11.15 44.35-11.15L44.35-11.15Q45-11.15 45.38-10.55 45.75-9.95 45.75-8.9L45.75-8.9Q45.75-6.95 44.8-5.8L44.8-5.8Q42.35-2.85 40-1.3 37.65 0.25 34.25 0.25L34.25 0.25Q30.75 0.25 28.6-1.78 26.45-3.8 25.9-7.5L25.9-7.5Q22.2 0.25 15 0.25L15 0.25Z" fill="#113f67" data-fill-palette-color="primary"></path><path d="M84.05-38.35Q84.05-36.85 83.43-36.1 82.8-35.35 81.4-35.35L81.4-35.35Q81.3-34.3 80.95-31.7L80.95-31.7Q80.45-28.2 80.4-27.8L80.4-27.8Q75.95 5.35 61.85 5.35L61.85 5.35Q57.7 5.35 55.38 3 53.05 0.65 53.05-2.9L53.05-2.9Q53.05-9.25 58.45-14.13 63.85-19 72.65-22.2L72.65-22.2Q73.2-25.75 73.5-28.55L73.5-28.55 74.4-36.1Q71.4-36.4 68.8-36.4L68.8-36.4Q61.85-36.4 58.55-35.05 55.25-33.7 55.25-30.65L55.25-30.65Q55.25-29.15 56.25-27.4L56.25-27.4Q56.55-26.9 56.55-26.35L56.55-26.35Q56.55-25.3 55.48-24.48 54.4-23.65 53.15-23.65L53.15-23.65Q51.55-23.65 50.7-25L50.7-25Q49.3-27.3 49.3-30.35L49.3-30.35Q49.3-42.35 70.3-42.35L70.3-42.35Q76.4-42.35 81.2-41.15L81.2-41.15Q84.05-40.45 84.05-38.35L84.05-38.35ZM62.5 0Q64.95 0 67.4-3.7 69.85-7.4 71.7-16.65L71.7-16.65Q59.5-11.3 59.5-3.55L59.5-3.55Q59.5-1.85 60.3-0.93 61.1 0 62.5 0L62.5 0Z" fill="#87c0cd" data-fill-palette-color="secondary"></path><path d="M100.4 0.4Q93.75 0.4 89.75-2.13 85.75-4.65 85.75-9.85L85.75-9.85Q85.75-12.6 86.7-14.05 87.65-15.5 89.5-15.5L89.5-15.5Q90.85-15.5 91.7-14.8 92.55-14.1 92.55-13L92.55-13Q92.55-12 92.4-11.25L92.4-11.25Q92.4-11.05 92.33-10.55 92.25-10.05 92.25-9.5L92.25-9.5Q92.25-7.25 94.53-6.15 96.8-5.05 100.9-5.05L100.9-5.05Q105.15-5.05 107.55-6.58 109.95-8.1 109.95-10.85L109.95-10.85Q109.95-12.55 108.85-13.78 107.75-15 106.1-15.83 104.45-16.65 101.45-17.85L101.45-17.85Q97.6-19.35 95.18-20.7 92.75-22.05 91.03-24.38 89.3-26.7 89.3-30.15L89.3-30.15Q89.3-33.75 91.23-36.55 93.15-39.35 96.78-40.9 100.4-42.45 105.3-42.45L105.3-42.45Q108.95-42.45 112-41.38 115.05-40.3 116.88-38.1 118.7-35.9 118.7-32.7L118.7-32.7Q118.7-29.55 117.75-27.95 116.8-26.35 114.95-26.35L114.95-26.35Q113.65-26.35 112.78-27.15 111.9-27.95 111.9-29.05L111.9-29.05Q111.9-30 112.05-30.8L112.05-30.8Q112.2-32.3 112.2-32.7L112.2-32.7Q112.2-34.8 110.15-35.9 108.1-37 105.05-37L105.05-37Q100.75-37 98.48-35.43 96.2-33.85 96.2-31L96.2-31Q96.2-29.1 97.38-27.75 98.55-26.4 100.3-25.5 102.05-24.6 105.2-23.35L105.2-23.35Q109-21.8 111.3-20.55 113.6-19.3 115.23-17.15 116.85-15 116.85-11.85L116.85-11.85Q116.85-5.95 112.38-2.78 107.9 0.4 100.4 0.4L100.4 0.4Z" fill="#113f67" data-fill-palette-color="primary"></path></g></svg></g></svg></g></svg></g></svg></g><g><svg viewBox="0 0 242.37377543599263 242.37377543599263" height="242.37377543599263" width="242.37377543599263"><g><svg xmlns="http://www.w3.org/2000/svg" xmlns:xlink="http://www.w3.org/1999/xlink" version="1.0" x="0" y="0" viewBox="1 1 48 48" enable-background="new 0 0 50 50" xml:space="preserve" height="242.37377543599263" width="242.37377543599263" class="icon-icon-0" data-fill-palette-color="accent" id="icon-0"><g fill="#87c0cd" data-fill-palette-color="accent"><g fill="#87c0cd" data-fill-palette-color="accent"><rect x="1" y="1" fill="#87c0cd" width="23" height="5" data-fill-palette-color="accent"></rect><rect x="1" y="10" fill="#87c0cd" width="23" height="5" data-fill-palette-color="accent"></rect><rect x="1" y="19" fill="#87c0cd" width="23" height="5" data-fill-palette-color="accent"></rect></g><g fill="#87c0cd" data-fill-palette-color="accent"><rect x="26" y="26" fill="#87c0cd" width="23" height="5" data-fill-palette-color="accent"></rect><rect x="26" y="35" fill="#87c0cd" width="23" height="5" data-fill-palette-color="accent"></rect><rect x="26" y="44" fill="#87c0cd" width="23" height="5" data-fill-palette-color="accent"></rect></g><g fill="#87c0cd" data-fill-palette-color="accent"><rect x="19" y="26" fill="#87c0cd" width="5" height="23" data-fill-palette-color="accent"></rect><rect x="10" y="26" fill="#87c0cd" width="5" height="23" data-fill-palette-color="accent"></rect><rect x="1" y="26" fill="#87c0cd" width="5" height="23" data-fill-palette-color="accent"></rect></g><g fill="#87c0cd" data-fill-palette-color="accent"><rect x="44" y="1" fill="#87c0cd" width="5" height="23" data-fill-palette-color="accent"></rect><rect x="35" y="1" fill="#87c0cd" width="5" height="23" data-fill-palette-color="accent"></rect><rect x="26" y="1" fill="#87c0cd" width="5" height="23" data-fill-palette-color="accent"></rect></g></g></svg></g></svg></g></svg></g><defs></defs></svg><rect width="395.52" height="141.12198269022474" fill="none" stroke="none" visibility="hidden"></rect></g></svg></g></svg>